# xmcd
#
# Track frame offsets: 
#        150
#        15254
#        31835
#        48638
#        67217
#        85264
#        99818
#        117127
#        129067
#        142816
#        156644
#
# Disc length: 2293 seconds
#
# Revision: 0
# Processed by: cddbd v1.5.2PL0 Copyright (c) Steve Scherf et al.
# Submitted via: ExactAudioCopyFreeDBPlugin 1.0
#
DISCID=8308f30b
DTITLE=Harvesters, The - All Kinds Of Beautiful
DYEAR=2012
DGENRE=Country
TTITLE0=Who Needs Money
TTITLE1=Hands Off She's All Mine
TTITLE2=Whenever You Come Around
TTITLE3=All Kinds Of Beautiful
TTITLE4=You'll Find Your Way
TTITLE5=Everybody Gotta Love Somebody
TTITLE6=Hammer And Nails
TTITLE7=We're Gone
TTITLE8=Doin' What I Shouldn't
TTITLE9=Teardrops
TTITLE10=I Want You To Want Me
EXTD=
EXTT0=
EXTT1=
EXTT2=
EXTT3=
EXTT4=
EXTT5=
EXTT6=
EXTT7=
EXTT8=
EXTT9=
EXTT10=
PLAYORDER=
